<svg width="239" height="48" viewBox="0 0 239 48" fill="none" xmlns="http://www.w3.org/2000/svg">
<path d="M19.3995 9.73242C23.2606 9.73242 26.4008 11.0117 28.8198 13.5703C31.3319 16.1755 32.588 19.711 32.588 24.177V45.5996H23.5863V25.2935C23.5863 23.014 22.9583 21.2462 21.7022 19.9901C20.4927 18.7341 18.818 18.1061 16.678 18.1061C14.3055 18.1061 12.4214 18.8504 11.0258 20.3391C9.67671 21.7812 9.00217 23.9211 9.00217 26.7589V45.5996H0.000488281V10.7093H9.00217V14.6171C11.1421 11.3606 14.6079 9.73242 19.3995 9.73242Z" fill="white"/>
<path d="M73.0972 31.8528H46.7899C47.9529 36.2257 51.2326 38.4122 56.629 38.4122C60.0715 38.4122 62.6766 37.2492 64.4444 34.9232L71.7016 39.11C68.2591 44.0877 63.1883 46.5765 56.4894 46.5765C50.7209 46.5765 46.0921 44.832 42.6031 41.343C39.1141 37.8539 37.3696 33.4578 37.3696 28.1545C37.3696 22.9442 39.0908 18.5713 42.5333 15.0357C45.9293 11.5002 50.3487 9.73242 55.7916 9.73242C60.9554 9.73242 65.1655 11.5002 68.4219 15.0357C71.7713 18.5713 73.4461 22.9442 73.4461 28.1545C73.4461 29.1314 73.3298 30.3642 73.0972 31.8528ZM46.6504 24.8748H64.4444C63.9327 22.5953 62.886 20.8508 61.3043 19.6412C59.7691 18.4317 57.9316 17.827 55.7916 17.827C53.3726 17.827 51.3722 18.455 49.7905 19.711C48.2088 20.9206 47.1621 22.6418 46.6504 24.8748Z" fill="white"/>
<path d="M101.667 29.5501V10.7093H110.669V45.5996H101.667V41.6919C99.5274 44.9483 96.0617 46.5765 91.2701 46.5765C87.4554 46.5765 84.292 45.2972 81.7799 42.7386C79.3144 40.1334 78.0816 36.5979 78.0816 32.132V10.7093H87.0832V31.0155C87.0832 33.295 87.688 35.0627 88.8975 36.3188C90.1536 37.5748 91.8516 38.2029 93.9915 38.2029C96.364 38.2029 98.2249 37.4818 99.574 36.0397C100.97 34.551 101.667 32.3878 101.667 29.5501Z" fill="white"/>
<path d="M137.782 10.7087V19.3615H129.896V33.8758C129.896 35.0854 130.199 35.9692 130.803 36.5275C131.408 37.0857 132.292 37.4114 133.455 37.5044C134.618 37.5509 136.06 37.5277 137.782 37.4346V45.599C131.687 46.2968 127.338 45.7385 124.733 43.9242C122.174 42.0634 120.895 38.7139 120.895 33.8758V19.3615H114.824V10.7087H120.895V3.66089L129.896 0.939453V10.7087H137.782Z" fill="url(#paint0_linear_881_302)"/>
<path d="M152.585 10.7087V16.7098C153.376 14.5234 154.725 12.8719 156.632 11.7554C158.539 10.5924 160.726 10.0109 163.191 10.0109V20.0593C160.447 19.6871 157.981 20.2454 155.795 21.734C153.655 23.1762 152.585 25.572 152.585 28.9214V45.599H143.583V10.7087H152.585Z" fill="url(#paint1_linear_881_302)"/>
<path d="M225.812 9.73242C229.673 9.73242 232.813 11.0117 235.232 13.5703C237.744 16.1755 239 19.711 239 24.177V45.5996H229.998V25.2935C229.998 23.014 229.37 21.2462 228.114 19.9901C226.905 18.7341 225.23 18.1061 223.09 18.1061C220.718 18.1061 218.834 18.8504 217.438 20.339C216.089 21.7812 215.414 23.9211 215.414 26.7589V45.5996H206.413V10.7093H215.414V14.6171C217.554 11.3606 221.02 9.73242 225.812 9.73242Z" fill="url(#paint2_linear_881_302)"/>
<mask id="path-4-outside-1_881_302" maskUnits="userSpaceOnUse" x="166.181" y="7.80664" width="36" height="40" fill="black">
<rect fill="white" x="166.181" y="7.80664" width="36" height="40"/>
<path fill-rule="evenodd" clip-rule="evenodd" d="M183.843 8.82131C181.864 9.03689 180.128 12.0621 179.026 17.2147C178.911 17.7546 178.905 17.8139 178.962 17.8292C178.997 17.8385 179.171 17.9018 179.349 17.9697L179.673 18.0934L179.832 17.3563C180.323 15.0774 180.844 13.4687 181.543 12.07C182.143 10.8696 182.79 10.0956 183.469 9.76506C183.737 9.63419 183.775 9.62626 184.12 9.62626C184.469 9.62626 184.501 9.6334 184.79 9.77281C185.2 9.97072 185.75 10.5086 186.14 11.0925C186.453 11.5612 186.931 12.4994 187.185 13.1415C187.672 14.3758 188.143 16.0208 188.456 17.5842L188.559 18.098L188.658 18.0602C188.749 18.0255 189.06 17.9104 189.259 17.8381L189.341 17.8081L189.214 17.2126C188.475 13.7599 187.46 11.2599 186.251 9.91752C185.503 9.08825 184.71 8.72683 183.843 8.82131ZM170.382 16.886C168.03 17.0898 166.914 18.1957 167.235 20.0049C167.435 21.1402 168.154 22.4072 169.505 24.009C170.108 24.7233 172.574 27.1201 172.783 27.1946C172.817 27.2068 173.404 26.7349 173.401 26.6975C173.4 26.6841 173.154 26.46 172.854 26.1996C172.122 25.5635 170.647 24.0982 170.155 23.5181C169.11 22.2854 168.486 21.304 168.189 20.4289C167.706 19.0056 168.138 18.1838 169.561 17.8173C169.897 17.7307 170.04 17.7168 170.757 17.7002C171.264 17.6885 171.755 17.6988 172.055 17.7275C176.638 18.1657 183.644 21.082 189.902 25.1558C190.723 25.6906 192.383 26.8396 192.726 27.1104L192.879 27.2311L193.212 26.9754L193.546 26.7197L193.117 26.4037C192.263 25.7751 191.954 25.5539 191.467 25.2223C184.994 20.8187 177.596 17.5928 172.557 16.9761C171.962 16.9033 170.758 16.8535 170.382 16.886ZM196.523 16.8877C193.611 17.1059 189.593 18.3283 185.553 20.2255L185.02 20.4756L185.133 20.5417C185.352 20.6699 185.869 20.924 185.911 20.924C185.934 20.924 186.232 20.7989 186.573 20.6459C190.173 19.0293 193.575 17.992 196.142 17.7285C196.712 17.67 197.876 17.6794 198.296 17.746C200.006 18.0169 200.576 18.8856 200.054 20.4229C199.751 21.3129 199.141 22.2722 198.085 23.5181C197.608 24.0814 196.133 25.5485 195.416 26.1732C194.934 26.5933 194.704 26.7861 193.89 27.4528C193.392 27.8607 191.981 28.8944 191.031 29.5485C187.846 31.74 183.93 33.8898 180.581 35.2853C180.226 35.4332 180.19 35.4574 180.191 35.5457C180.194 35.6852 180.286 36.221 180.312 36.2459C180.333 36.2671 181.007 35.9908 181.85 35.6153C184.892 34.2595 188 32.5454 190.815 30.6713C192.689 29.4234 194.183 28.2987 195.76 26.948C196.45 26.357 198.141 24.6964 198.64 24.1197C200.475 21.9976 201.285 20.2166 201.007 18.9126C200.784 17.8634 199.911 17.1958 198.45 16.956C198.108 16.8998 196.922 16.8577 196.523 16.8877ZM178.51 20.2379C178.51 20.2534 178.476 20.5283 178.436 20.8488C178.348 21.5479 178.223 22.866 178.169 23.6686C177.987 26.3774 178.01 29.9848 178.225 32.5414C178.816 39.565 180.537 44.7532 182.76 46.2185C183.634 46.7941 184.604 46.7955 185.474 46.2222C187.629 44.8021 189.328 39.8587 189.96 33.1708C190.004 32.7001 190.035 32.2732 190.028 32.222C190.017 32.1308 190.01 32.1332 189.654 32.3563C189.454 32.4812 189.269 32.5962 189.242 32.6119C189.209 32.6308 189.174 32.8345 189.136 33.2206C188.664 38.1282 187.557 42.2428 186.14 44.3655C185.75 44.9494 185.2 45.4873 184.79 45.6852C184.501 45.8246 184.469 45.8318 184.12 45.8318C183.772 45.8318 183.739 45.8246 183.45 45.6852C183.041 45.4873 182.49 44.9493 182.101 44.3655C179.408 40.3317 178.145 29.9367 179.25 20.8934C179.305 20.4463 179.343 20.5031 178.867 20.3226C178.551 20.2027 178.511 20.1932 178.51 20.2379ZM177.022 25.0475C175.014 26.4526 174.312 26.98 173.053 28.0272C171.871 29.0108 170.394 30.4281 169.603 31.3383C167.23 34.0684 166.577 36.259 167.751 37.5527C168.212 38.0614 168.926 38.3784 169.943 38.5255C170.484 38.6039 171.759 38.5847 172.533 38.4866C173.746 38.3327 175.443 37.9583 176.621 37.5846C177.378 37.3445 177.838 37.1961 177.915 37.1671L178.003 37.1341L177.938 36.7546C177.902 36.5459 177.866 36.3686 177.858 36.3605C177.849 36.3524 177.645 36.4121 177.404 36.493C176.711 36.7253 175.881 36.9679 175.095 37.1677C173.405 37.5972 172.197 37.7754 170.973 37.7758C168.931 37.7763 167.921 37.1287 168.001 35.8705C168.066 34.8535 168.761 33.5852 170.155 31.9381C170.676 31.3223 172.218 29.8038 173.034 29.1026C174.136 28.155 175.474 27.1205 176.799 26.1908C177.124 25.9629 177.249 25.8531 177.262 25.7839C177.282 25.6793 177.299 24.871 177.281 24.8728C177.275 24.8734 177.158 24.952 177.022 25.0475ZM195.139 28.489C194.98 28.619 194.852 28.7422 194.855 28.7629C194.857 28.7836 195.1 29.0103 195.395 29.2667C196.057 29.8416 197.501 31.2639 197.938 31.7707C199.117 33.1374 199.732 34.088 200.056 35.0422C200.534 36.4488 200.096 37.2758 198.679 37.6408C198.341 37.7279 198.203 37.7413 197.47 37.7578C196.603 37.7772 196.113 37.745 195.264 37.6128C194 37.4161 192.33 36.9936 190.837 36.493C190.595 36.4121 190.391 36.3524 190.383 36.3605C190.374 36.3686 190.338 36.5459 190.302 36.7546L190.237 37.1341L190.32 37.1651C190.879 37.3747 192.276 37.7856 193.184 38.0077C194.825 38.4094 195.959 38.5686 197.191 38.5707C198.078 38.5722 198.398 38.5395 198.991 38.387C200.534 37.9903 201.266 36.9241 201.006 35.4531C200.805 34.3205 200.083 33.0471 198.735 31.4494C198.132 30.7348 195.667 28.338 195.458 28.2635C195.441 28.2576 195.298 28.3591 195.139 28.489Z"/>
</mask>
<path fill-rule="evenodd" clip-rule="evenodd" d="M183.843 8.82131C181.864 9.03689 180.128 12.0621 179.026 17.2147C178.911 17.7546 178.905 17.8139 178.962 17.8292C178.997 17.8385 179.171 17.9018 179.349 17.9697L179.673 18.0934L179.832 17.3563C180.323 15.0774 180.844 13.4687 181.543 12.07C182.143 10.8696 182.79 10.0956 183.469 9.76506C183.737 9.63419 183.775 9.62626 184.12 9.62626C184.469 9.62626 184.501 9.6334 184.79 9.77281C185.2 9.97072 185.75 10.5086 186.14 11.0925C186.453 11.5612 186.931 12.4994 187.185 13.1415C187.672 14.3758 188.143 16.0208 188.456 17.5842L188.559 18.098L188.658 18.0602C188.749 18.0255 189.06 17.9104 189.259 17.8381L189.341 17.8081L189.214 17.2126C188.475 13.7599 187.46 11.2599 186.251 9.91752C185.503 9.08825 184.71 8.72683 183.843 8.82131ZM170.382 16.886C168.03 17.0898 166.914 18.1957 167.235 20.0049C167.435 21.1402 168.154 22.4072 169.505 24.009C170.108 24.7233 172.574 27.1201 172.783 27.1946C172.817 27.2068 173.404 26.7349 173.401 26.6975C173.4 26.6841 173.154 26.46 172.854 26.1996C172.122 25.5635 170.647 24.0982 170.155 23.5181C169.11 22.2854 168.486 21.304 168.189 20.4289C167.706 19.0056 168.138 18.1838 169.561 17.8173C169.897 17.7307 170.04 17.7168 170.757 17.7002C171.264 17.6885 171.755 17.6988 172.055 17.7275C176.638 18.1657 183.644 21.082 189.902 25.1558C190.723 25.6906 192.383 26.8396 192.726 27.1104L192.879 27.2311L193.212 26.9754L193.546 26.7197L193.117 26.4037C192.263 25.7751 191.954 25.5539 191.467 25.2223C184.994 20.8187 177.596 17.5928 172.557 16.9761C171.962 16.9033 170.758 16.8535 170.382 16.886ZM196.523 16.8877C193.611 17.1059 189.593 18.3283 185.553 20.2255L185.02 20.4756L185.133 20.5417C185.352 20.6699 185.869 20.924 185.911 20.924C185.934 20.924 186.232 20.7989 186.573 20.6459C190.173 19.0293 193.575 17.992 196.142 17.7285C196.712 17.67 197.876 17.6794 198.296 17.746C200.006 18.0169 200.576 18.8856 200.054 20.4229C199.751 21.3129 199.141 22.2722 198.085 23.5181C197.608 24.0814 196.133 25.5485 195.416 26.1732C194.934 26.5933 194.704 26.7861 193.89 27.4528C193.392 27.8607 191.981 28.8944 191.031 29.5485C187.846 31.74 183.93 33.8898 180.581 35.2853C180.226 35.4332 180.19 35.4574 180.191 35.5457C180.194 35.6852 180.286 36.221 180.312 36.2459C180.333 36.2671 181.007 35.9908 181.85 35.6153C184.892 34.2595 188 32.5454 190.815 30.6713C192.689 29.4234 194.183 28.2987 195.76 26.948C196.45 26.357 198.141 24.6964 198.64 24.1197C200.475 21.9976 201.285 20.2166 201.007 18.9126C200.784 17.8634 199.911 17.1958 198.45 16.956C198.108 16.8998 196.922 16.8577 196.523 16.8877ZM178.51 20.2379C178.51 20.2534 178.476 20.5283 178.436 20.8488C178.348 21.5479 178.223 22.866 178.169 23.6686C177.987 26.3774 178.01 29.9848 178.225 32.5414C178.816 39.565 180.537 44.7532 182.76 46.2185C183.634 46.7941 184.604 46.7955 185.474 46.2222C187.629 44.8021 189.328 39.8587 189.96 33.1708C190.004 32.7001 190.035 32.2732 190.028 32.222C190.017 32.1308 190.01 32.1332 189.654 32.3563C189.454 32.4812 189.269 32.5962 189.242 32.6119C189.209 32.6308 189.174 32.8345 189.136 33.2206C188.664 38.1282 187.557 42.2428 186.14 44.3655C185.75 44.9494 185.2 45.4873 184.79 45.6852C184.501 45.8246 184.469 45.8318 184.12 45.8318C183.772 45.8318 183.739 45.8246 183.45 45.6852C183.041 45.4873 182.49 44.9493 182.101 44.3655C179.408 40.3317 178.145 29.9367 179.25 20.8934C179.305 20.4463 179.343 20.5031 178.867 20.3226C178.551 20.2027 178.511 20.1932 178.51 20.2379ZM177.022 25.0475C175.014 26.4526 174.312 26.98 173.053 28.0272C171.871 29.0108 170.394 30.4281 169.603 31.3383C167.23 34.0684 166.577 36.259 167.751 37.5527C168.212 38.0614 168.926 38.3784 169.943 38.5255C170.484 38.6039 171.759 38.5847 172.533 38.4866C173.746 38.3327 175.443 37.9583 176.621 37.5846C177.378 37.3445 177.838 37.1961 177.915 37.1671L178.003 37.1341L177.938 36.7546C177.902 36.5459 177.866 36.3686 177.858 36.3605C177.849 36.3524 177.645 36.4121 177.404 36.493C176.711 36.7253 175.881 36.9679 175.095 37.1677C173.405 37.5972 172.197 37.7754 170.973 37.7758C168.931 37.7763 167.921 37.1287 168.001 35.8705C168.066 34.8535 168.761 33.5852 170.155 31.9381C170.676 31.3223 172.218 29.8038 173.034 29.1026C174.136 28.155 175.474 27.1205 176.799 26.1908C177.124 25.9629 177.249 25.8531 177.262 25.7839C177.282 25.6793 177.299 24.871 177.281 24.8728C177.275 24.8734 177.158 24.952 177.022 25.0475ZM195.139 28.489C194.98 28.619 194.852 28.7422 194.855 28.7629C194.857 28.7836 195.1 29.0103 195.395 29.2667C196.057 29.8416 197.501 31.2639 197.938 31.7707C199.117 33.1374 199.732 34.088 200.056 35.0422C200.534 36.4488 200.096 37.2758 198.679 37.6408C198.341 37.7279 198.203 37.7413 197.47 37.7578C196.603 37.7772 196.113 37.745 195.264 37.6128C194 37.4161 192.33 36.9936 190.837 36.493C190.595 36.4121 190.391 36.3524 190.383 36.3605C190.374 36.3686 190.338 36.5459 190.302 36.7546L190.237 37.1341L190.32 37.1651C190.879 37.3747 192.276 37.7856 193.184 38.0077C194.825 38.4094 195.959 38.5686 197.191 38.5707C198.078 38.5722 198.398 38.5395 198.991 38.387C200.534 37.9903 201.266 36.9241 201.006 35.4531C200.805 34.3205 200.083 33.0471 198.735 31.4494C198.132 30.7348 195.667 28.338 195.458 28.2635C195.441 28.2576 195.298 28.3591 195.139 28.489Z" fill="url(#paint3_linear_881_302)"/>
<path fill-rule="evenodd" clip-rule="evenodd" d="M183.843 8.82131C181.864 9.03689 180.128 12.0621 179.026 17.2147C178.911 17.7546 178.905 17.8139 178.962 17.8292C178.997 17.8385 179.171 17.9018 179.349 17.9697L179.673 18.0934L179.832 17.3563C180.323 15.0774 180.844 13.4687 181.543 12.07C182.143 10.8696 182.79 10.0956 183.469 9.76506C183.737 9.63419 183.775 9.62626 184.12 9.62626C184.469 9.62626 184.501 9.6334 184.79 9.77281C185.2 9.97072 185.75 10.5086 186.14 11.0925C186.453 11.5612 186.931 12.4994 187.185 13.1415C187.672 14.3758 188.143 16.0208 188.456 17.5842L188.559 18.098L188.658 18.0602C188.749 18.0255 189.06 17.9104 189.259 17.8381L189.341 17.8081L189.214 17.2126C188.475 13.7599 187.46 11.2599 186.251 9.91752C185.503 9.08825 184.71 8.72683 183.843 8.82131ZM170.382 16.886C168.03 17.0898 166.914 18.1957 167.235 20.0049C167.435 21.1402 168.154 22.4072 169.505 24.009C170.108 24.7233 172.574 27.1201 172.783 27.1946C172.817 27.2068 173.404 26.7349 173.401 26.6975C173.4 26.6841 173.154 26.46 172.854 26.1996C172.122 25.5635 170.647 24.0982 170.155 23.5181C169.11 22.2854 168.486 21.304 168.189 20.4289C167.706 19.0056 168.138 18.1838 169.561 17.8173C169.897 17.7307 170.04 17.7168 170.757 17.7002C171.264 17.6885 171.755 17.6988 172.055 17.7275C176.638 18.1657 183.644 21.082 189.902 25.1558C190.723 25.6906 192.383 26.8396 192.726 27.1104L192.879 27.2311L193.212 26.9754L193.546 26.7197L193.117 26.4037C192.263 25.7751 191.954 25.5539 191.467 25.2223C184.994 20.8187 177.596 17.5928 172.557 16.9761C171.962 16.9033 170.758 16.8535 170.382 16.886ZM196.523 16.8877C193.611 17.1059 189.593 18.3283 185.553 20.2255L185.02 20.4756L185.133 20.5417C185.352 20.6699 185.869 20.924 185.911 20.924C185.934 20.924 186.232 20.7989 186.573 20.6459C190.173 19.0293 193.575 17.992 196.142 17.7285C196.712 17.67 197.876 17.6794 198.296 17.746C200.006 18.0169 200.576 18.8856 200.054 20.4229C199.751 21.3129 199.141 22.2722 198.085 23.5181C197.608 24.0814 196.133 25.5485 195.416 26.1732C194.934 26.5933 194.704 26.7861 193.89 27.4528C193.392 27.8607 191.981 28.8944 191.031 29.5485C187.846 31.74 183.93 33.8898 180.581 35.2853C180.226 35.4332 180.19 35.4574 180.191 35.5457C180.194 35.6852 180.286 36.221 180.312 36.2459C180.333 36.2671 181.007 35.9908 181.85 35.6153C184.892 34.2595 188 32.5454 190.815 30.6713C192.689 29.4234 194.183 28.2987 195.76 26.948C196.45 26.357 198.141 24.6964 198.64 24.1197C200.475 21.9976 201.285 20.2166 201.007 18.9126C200.784 17.8634 199.911 17.1958 198.45 16.956C198.108 16.8998 196.922 16.8577 196.523 16.8877ZM178.51 20.2379C178.51 20.2534 178.476 20.5283 178.436 20.8488C178.348 21.5479 178.223 22.866 178.169 23.6686C177.987 26.3774 178.01 29.9848 178.225 32.5414C178.816 39.565 180.537 44.7532 182.76 46.2185C183.634 46.7941 184.604 46.7955 185.474 46.2222C187.629 44.8021 189.328 39.8587 189.96 33.1708C190.004 32.7001 190.035 32.2732 190.028 32.222C190.017 32.1308 190.01 32.1332 189.654 32.3563C189.454 32.4812 189.269 32.5962 189.242 32.6119C189.209 32.6308 189.174 32.8345 189.136 33.2206C188.664 38.1282 187.557 42.2428 186.14 44.3655C185.75 44.9494 185.2 45.4873 184.79 45.6852C184.501 45.8246 184.469 45.8318 184.12 45.8318C183.772 45.8318 183.739 45.8246 183.45 45.6852C183.041 45.4873 182.49 44.9493 182.101 44.3655C179.408 40.3317 178.145 29.9367 179.25 20.8934C179.305 20.4463 179.343 20.5031 178.867 20.3226C178.551 20.2027 178.511 20.1932 178.51 20.2379ZM177.022 25.0475C175.014 26.4526 174.312 26.98 173.053 28.0272C171.871 29.0108 170.394 30.4281 169.603 31.3383C167.23 34.0684 166.577 36.259 167.751 37.5527C168.212 38.0614 168.926 38.3784 169.943 38.5255C170.484 38.6039 171.759 38.5847 172.533 38.4866C173.746 38.3327 175.443 37.9583 176.621 37.5846C177.378 37.3445 177.838 37.1961 177.915 37.1671L178.003 37.1341L177.938 36.7546C177.902 36.5459 177.866 36.3686 177.858 36.3605C177.849 36.3524 177.645 36.4121 177.404 36.493C176.711 36.7253 175.881 36.9679 175.095 37.1677C173.405 37.5972 172.197 37.7754 170.973 37.7758C168.931 37.7763 167.921 37.1287 168.001 35.8705C168.066 34.8535 168.761 33.5852 170.155 31.9381C170.676 31.3223 172.218 29.8038 173.034 29.1026C174.136 28.155 175.474 27.1205 176.799 26.1908C177.124 25.9629 177.249 25.8531 177.262 25.7839C177.282 25.6793 177.299 24.871 177.281 24.8728C177.275 24.8734 177.158 24.952 177.022 25.0475ZM195.139 28.489C194.98 28.619 194.852 28.7422 194.855 28.7629C194.857 28.7836 195.1 29.0103 195.395 29.2667C196.057 29.8416 197.501 31.2639 197.938 31.7707C199.117 33.1374 199.732 34.088 200.056 35.0422C200.534 36.4488 200.096 37.2758 198.679 37.6408C198.341 37.7279 198.203 37.7413 197.47 37.7578C196.603 37.7772 196.113 37.745 195.264 37.6128C194 37.4161 192.33 36.9936 190.837 36.493C190.595 36.4121 190.391 36.3524 190.383 36.3605C190.374 36.3686 190.338 36.5459 190.302 36.7546L190.237 37.1341L190.32 37.1651C190.879 37.3747 192.276 37.7856 193.184 38.0077C194.825 38.4094 195.959 38.5686 197.191 38.5707C198.078 38.5722 198.398 38.5395 198.991 38.387C200.534 37.9903 201.266 36.9241 201.006 35.4531C200.805 34.3205 200.083 33.0471 198.735 31.4494C198.132 30.7348 195.667 28.338 195.458 28.2635C195.441 28.2576 195.298 28.3591 195.139 28.489Z" stroke="url(#paint4_linear_881_302)" stroke-width="1.04611" mask="url(#path-4-outside-1_881_302)"/>
<defs>
<linearGradient id="paint0_linear_881_302" x1="153.691" y1="-10.0974" x2="122.488" y2="50.8343" gradientUnits="userSpaceOnUse">
<stop stop-color="#8364E8"/>
<stop offset="1" stop-color="#D397FA"/>
</linearGradient>
<linearGradient id="paint1_linear_881_302" x1="153.691" y1="-10.0974" x2="122.488" y2="50.8343" gradientUnits="userSpaceOnUse">
<stop stop-color="#8364E8"/>
<stop offset="1" stop-color="#D397FA"/>
</linearGradient>
<linearGradient id="paint2_linear_881_302" x1="232.599" y1="0.925754" x2="205.389" y2="45.7922" gradientUnits="userSpaceOnUse">
<stop stop-color="#8364E8"/>
<stop offset="1" stop-color="#D397FA"/>
</linearGradient>
<linearGradient id="paint3_linear_881_302" x1="194.406" y1="-0.485543" x2="165.501" y2="46.4757" gradientUnits="userSpaceOnUse">
<stop stop-color="#8364E8"/>
<stop offset="1" stop-color="#D397FA"/>
</linearGradient>
<linearGradient id="paint4_linear_881_302" x1="194.406" y1="-0.485543" x2="165.501" y2="46.4757" gradientUnits="userSpaceOnUse">
<stop stop-color="#8364E8"/>
<stop offset="1" stop-color="#D397FA"/>
</linearGradient>
</defs>
</svg>
