<svg width="140" height="29" viewBox="0 0 140 29" fill="none" xmlns="http://www.w3.org/2000/svg">
<path d="M119.212 18.8758C118.882 18.0387 118.358 17.2358 117.565 16.3525C116.891 15.6017 116.188 14.9072 115.469 14.2808C115.499 14.2527 115.527 14.2266 115.557 14.1985C115.869 13.9095 116.19 13.6083 116.505 13.3072C117.421 12.432 118.053 11.6973 118.553 10.9264C118.929 10.3483 119.328 9.64368 119.451 8.80056C119.581 7.90726 119.338 7.16852 118.728 6.60444C118.382 6.28525 117.961 6.06644 117.437 5.93395C116.971 5.81752 116.487 5.76132 115.953 5.76132C115.6 5.76132 115.226 5.78541 114.812 5.8376C113.756 5.97009 112.668 6.22102 111.387 6.62652C111.272 6.66265 111.158 6.70079 111.042 6.73693C110.845 5.82355 110.592 4.78771 110.212 3.76192C109.961 3.07939 109.594 2.19412 108.997 1.40118C108.694 0.999699 108.206 0.433604 107.455 0.164609C107.295 0.106394 107.138 0.0762821 106.986 0.0461707C106.925 0.0341262 106.867 0.0220815 106.807 0.010037L106.763 0H106.466L106.429 0.00602204C106.395 0.0120443 106.361 0.0180666 106.327 0.0240889C106.245 0.0381409 106.16 0.0521932 106.074 0.0722675C105.622 0.174646 105.211 0.401485 104.815 0.766837C104.299 1.2446 103.887 1.8368 103.482 2.69196C102.978 3.75389 102.596 4.94028 102.249 6.53819C102.235 6.60444 102.221 6.67068 102.209 6.73693C100.992 6.33544 99.9559 6.07447 98.9519 5.91187C98.3395 5.81351 97.7873 5.76533 97.2612 5.76533C97.0845 5.76533 96.9099 5.77135 96.7392 5.78139C95.9501 5.83158 95.3095 6.03433 94.7754 6.40169C94.1771 6.81321 93.8418 7.38532 93.7755 8.10198C93.7715 8.11804 93.7675 8.12807 93.7655 8.14012L93.7534 8.1903V8.5135L93.7594 8.54562C93.7675 8.5958 93.7755 8.648 93.7835 8.69818C93.8016 8.81863 93.8217 8.94309 93.8478 9.06956C93.9743 9.64167 94.2213 10.1937 94.649 10.8582C95.1549 11.6451 95.8135 12.4159 96.7191 13.2831C97.0705 13.6204 97.4319 13.9556 97.7853 14.2808C97.7813 14.2849 97.7773 14.2889 97.7733 14.2929C97.5122 14.5298 97.2412 14.7747 96.9781 15.0196C95.93 16.0032 95.2132 16.8283 94.653 17.6995C94.1932 18.4141 93.9361 19.0083 93.8197 19.6286C93.7996 19.731 93.7876 19.8294 93.7735 19.9237C93.7675 19.9639 93.7635 20.004 93.7574 20.0462L93.7534 20.0743V20.3372L93.7615 20.3774C93.7655 20.3935 93.7675 20.4075 93.7715 20.4236C93.7715 20.4296 93.7735 20.4336 93.7755 20.4396C93.8117 20.8632 93.9522 21.2486 94.1932 21.5879C94.5526 22.0937 95.0626 22.423 95.7955 22.6257C96.2191 22.7421 96.6769 22.8004 97.197 22.8004C97.4861 22.8004 97.8034 22.7823 98.1909 22.7462C99.2631 22.6438 100.39 22.4009 101.638 22.0054C101.829 21.9452 102.018 21.885 102.207 21.8227C102.265 22.0978 102.327 22.3808 102.393 22.6618C102.755 24.1714 103.152 25.2856 103.683 26.2752C104.06 26.9818 104.454 27.4937 104.919 27.8872C105.443 28.3288 106.012 28.5516 106.608 28.5516C106.704 28.5516 106.803 28.5456 106.901 28.5336C107.461 28.4673 107.963 28.2224 108.437 27.7828C109.116 27.1525 109.528 26.3736 109.809 25.7673C110.281 24.7516 110.638 23.6334 110.965 22.1479C110.989 22.0375 111.013 21.9271 111.036 21.8147C111.092 21.8328 111.146 21.8508 111.202 21.8689C111.59 21.9934 111.991 22.1218 112.393 22.2323C113.772 22.6137 114.913 22.7923 115.981 22.7923C116.059 22.7923 116.138 22.7923 116.216 22.7903C116.921 22.7723 117.481 22.6618 117.979 22.439C118.76 22.0917 119.244 21.5236 119.413 20.7528C119.541 20.1686 119.475 19.5724 119.202 18.8778L119.212 18.8758ZM109.395 18.5205C109.377 18.6811 109.361 18.8417 109.341 19.0003C109.2 20.1385 109.024 21.1462 108.803 22.0797C108.53 23.232 108.249 24.0911 107.891 24.864C107.63 25.4281 107.377 25.8757 106.99 26.225C106.937 26.2712 106.879 26.3174 106.815 26.3655C106.763 26.4057 106.7 26.4238 106.632 26.4238C106.556 26.4238 106.482 26.3997 106.427 26.3595C106.144 26.1447 105.901 25.8557 105.682 25.4803C105.277 24.7857 104.964 24.0048 104.721 23.0894C104.576 22.5454 104.454 21.9833 104.333 21.4393C104.305 21.3129 104.277 21.1884 104.249 21.0619C104.281 21.0519 104.313 21.0419 104.343 21.0278C105.462 20.5801 106.596 20.0522 107.71 19.456C108.243 19.1729 108.773 18.8718 109.289 18.5828C109.325 18.5627 109.359 18.5426 109.395 18.5225V18.5205ZM104.231 7.49373L104.239 7.45558C104.293 7.19863 104.349 6.94369 104.407 6.69076C104.59 5.88578 104.857 4.83589 105.305 3.84021C105.546 3.30623 105.771 2.87464 106.094 2.50928C106.168 2.42497 106.261 2.33665 106.377 2.2443C106.464 2.17404 106.548 2.13992 106.626 2.13992C106.714 2.13992 106.807 2.18207 106.903 2.26438C107.17 2.49322 107.403 2.78631 107.614 3.1617C108.17 4.15136 108.487 5.24741 108.704 6.09254C108.803 6.47997 108.887 6.86339 108.977 7.26889C108.993 7.34116 109.01 7.41142 109.026 7.48369C108.981 7.50176 108.939 7.51982 108.897 7.5399C108.624 7.66235 108.351 7.7848 108.078 7.90726C107.594 8.12406 107.11 8.34287 106.626 8.55766C105.891 8.23447 105.158 7.90726 104.423 7.58205L104.233 7.49774L104.231 7.49373ZM108.997 9.80227C110.596 9.10368 112.041 8.59781 113.411 8.26056C114.148 8.07789 115.023 7.8932 115.933 7.8932C116.013 7.8932 116.093 7.8932 116.176 7.89722C116.555 7.91127 116.842 7.94339 117.107 8.05781C117.332 8.15417 117.381 8.23647 117.346 8.46934C117.334 8.55766 117.312 8.65402 117.28 8.75439C117.097 9.34257 116.746 9.84041 116.395 10.2901C115.618 11.2858 114.674 12.151 113.855 12.8676C113.833 12.8857 113.81 12.9057 113.79 12.9238C112.329 11.8197 110.752 10.7939 108.997 9.80628V9.80227ZM111.425 19.4941L111.445 19.3135C111.501 18.7755 111.562 18.2174 111.61 17.6674C111.628 17.4686 111.62 17.3261 111.578 17.2077L113.808 15.6419C113.827 15.6599 113.847 15.678 113.863 15.6941C113.879 15.7081 113.895 15.7242 113.909 15.7382C114.104 15.9269 114.302 16.1136 114.499 16.3003C114.927 16.7058 115.369 17.1234 115.78 17.5509C116.371 18.1632 116.804 18.7574 117.105 19.3697C117.218 19.5985 117.334 19.8675 117.35 20.1445C117.36 20.3352 117.334 20.4015 117.13 20.4958C116.923 20.5922 116.682 20.6424 116.346 20.6604C116.22 20.6665 116.089 20.6705 115.961 20.6705C115.196 20.6705 114.393 20.554 113.429 20.3031C113.023 20.1967 112.61 20.0743 112.21 19.9558C111.965 19.8836 111.72 19.8093 111.473 19.739C111.449 19.731 111.423 19.725 111.399 19.719C111.409 19.6447 111.417 19.5704 111.425 19.4941V19.4941ZM112.054 14.2788C109.554 16.0935 106.821 17.6513 103.913 18.916C103.56 15.8707 103.558 12.7572 103.903 9.6497C106.725 10.8602 109.463 12.4139 112.054 14.2788V14.2788ZM101.524 14.052C101.514 16.1538 101.624 17.9785 101.863 19.7089C101.801 19.727 101.743 19.7471 101.691 19.7651C101.665 19.7752 101.638 19.7832 101.612 19.7912C100.761 20.0683 99.6326 20.4075 98.456 20.5801C98.0142 20.6444 97.6508 20.6745 97.3114 20.6745C97.0002 20.6745 96.7171 20.6484 96.444 20.5962C96.3416 20.5761 96.2372 20.544 96.1428 20.5019C95.922 20.4035 95.8698 20.3031 95.9119 20.0562C95.9802 19.6387 96.191 19.2613 96.3878 18.9481C96.9038 18.1271 97.5604 17.4345 98.1929 16.8102C99.0965 15.9169 100.135 15.0557 101.522 14.054L101.524 14.052ZM101.645 11.1332L101.612 11.4865C101.434 11.5206 101.289 11.613 101.191 11.6852C100.689 12.0506 100.187 12.4139 99.6828 12.7773L99.4699 12.9318C99.4097 12.8716 99.3495 12.8214 99.2953 12.7773C99.2631 12.7512 99.233 12.7251 99.2029 12.699C98.209 11.7936 97.3275 10.9646 96.6207 9.96487C96.3517 9.58346 96.0826 9.1639 95.9581 8.68814C95.93 8.57974 95.9119 8.46131 95.9079 8.33684C95.9039 8.25655 95.924 8.19231 96.0364 8.12607C96.2292 8.01164 96.444 7.9454 96.693 7.92332C96.8918 7.90525 97.0966 7.89722 97.3014 7.89722C98.1769 7.89722 99.1005 8.04577 100.295 8.379C100.735 8.50145 101.181 8.648 101.612 8.79052C101.695 8.81863 101.779 8.84472 101.861 8.87283C101.857 8.8929 101.855 8.91298 101.853 8.93506C101.781 9.66978 101.713 10.4165 101.647 11.1372L101.645 11.1332Z" fill="url(#paint0_linear_545_17921)"/>
<path d="M0 26.36V7.40792H4.33709L4.7206 9.863C5.90928 7.9439 8.21236 6.83179 10.7845 6.83179C15.5432 6.83179 17.9989 9.78672 17.9989 14.6969V26.36H13.3165V15.809C13.3165 12.6252 11.7423 11.0895 9.32474 11.0895C6.44741 11.0895 4.68245 13.0849 4.68245 16.1543V26.36H0Z" fill="black"/>
<path d="M21.4908 16.883C21.4908 10.937 25.366 6.83179 30.93 6.83179C36.4939 6.83179 40.2166 10.6298 40.2166 16.5377V17.9569L25.9403 17.9951C26.2857 21.3334 28.0506 23.0217 31.1589 23.0217C33.729 23.0217 35.4177 22.024 35.9558 20.2213H40.2929C39.4877 24.3647 36.0341 26.8579 31.0826 26.8579C25.4423 26.8579 21.4888 22.7527 21.4888 16.883H21.4908ZM26.0568 15.004H35.5743C35.5743 12.3944 33.7712 10.668 30.9701 10.668C28.1691 10.668 26.5186 12.1635 26.0588 15.004H26.0568Z" fill="black"/>
<path d="M61.5165 7.40601V26.3581H57.1795L56.8341 23.8268C55.6836 25.6294 53.2259 26.858 50.6939 26.858C46.3187 26.858 43.7485 23.903 43.7485 19.2619V7.40601H48.431V17.6118C48.431 21.2171 49.8506 22.6765 52.4609 22.6765C55.4165 22.6765 56.8361 20.9501 56.8361 17.3448V7.40801H61.5186L61.5165 7.40601Z" fill="black"/>
<path d="M68.0663 26.962V11.9224H64.4199V8.00991H68.0663V2.10205H72.7487V8.00991H76.4333V11.9224H72.7487V26.962H68.0663Z" fill="url(#paint1_linear_545_17921)"/>
<path d="M91.2436 12.2676H89.5168C86.1394 12.2676 84.0291 14.0703 84.0291 17.7539V26.9619H79.3467V8.04797H83.7601L84.0291 10.8102C84.8343 8.93124 86.6394 7.66455 89.1714 7.66455C89.824 7.66455 90.4765 7.74083 91.2436 7.93355V12.2696V12.2676Z" fill="url(#paint2_linear_545_17921)"/>
<path d="M122.001 26.8857V7.93355H126.338L126.721 10.3886C127.91 8.46954 130.213 7.35742 132.785 7.35742C137.544 7.35742 140 10.3124 140 15.2225V26.8857H135.317V16.3346C135.317 13.1509 133.743 11.6152 131.325 11.6152C128.448 11.6152 126.683 13.6106 126.683 16.6799V26.8857H122.001V26.8857Z" fill="url(#paint3_linear_545_17921)"/>
<defs>
<linearGradient id="paint0_linear_545_17921" x1="120.495" y1="6.38563" x2="93.8329" y2="21.5713" gradientUnits="userSpaceOnUse">
<stop stop-color="#8364E8"/>
<stop offset="1" stop-color="#D397FA"/>
</linearGradient>
<linearGradient id="paint1_linear_545_17921" x1="175.421" y1="-8.68185" x2="60.479" y2="16.7379" gradientUnits="userSpaceOnUse">
<stop stop-color="#8364E8"/>
<stop offset="1" stop-color="#D397FA"/>
</linearGradient>
<linearGradient id="paint2_linear_545_17921" x1="176.574" y1="-3.47064" x2="61.6315" y2="21.9511" gradientUnits="userSpaceOnUse">
<stop stop-color="#8364E8"/>
<stop offset="1" stop-color="#D397FA"/>
</linearGradient>
<linearGradient id="paint3_linear_545_17921" x1="158.908" y1="11.2398" x2="43.9658" y2="36.6595" gradientUnits="userSpaceOnUse">
<stop stop-color="#8364E8"/>
<stop offset="1" stop-color="#D397FA"/>
</linearGradient>
</defs>
</svg>
