<svg width="168" height="33" viewBox="0 0 168 33" fill="none" xmlns="http://www.w3.org/2000/svg">
<path d="M13.5793 6.1543C16.2822 6.1543 18.4803 7.04982 20.1736 8.84086C21.9321 10.6645 22.8113 13.1394 22.8113 16.2655V31.2614H16.5101V17.0471C16.5101 15.4514 16.0705 14.214 15.1913 13.3347C14.3446 12.4555 13.1723 12.0159 11.6743 12.0159C10.0135 12.0159 8.69469 12.5369 7.71776 13.579C6.77339 14.5885 6.30121 16.0864 6.30121 18.0729V31.2614H0V6.83815H6.30121V9.57355C7.79917 7.29405 10.2252 6.1543 13.5793 6.1543Z" fill="white"/>
<path d="M51.1679 21.6387H32.7528C33.5669 24.6997 35.8627 26.2302 39.6401 26.2302C42.0499 26.2302 43.8735 25.4161 45.1109 23.7879L50.191 26.7187C47.7812 30.2031 44.2317 31.9453 39.5424 31.9453C35.5045 31.9453 32.2643 30.7241 29.822 28.2818C27.3796 25.8395 26.1585 22.7621 26.1585 19.0498C26.1585 15.4026 27.3634 12.3415 29.7731 9.86663C32.1503 7.39174 35.2439 6.1543 39.054 6.1543C42.6686 6.1543 45.6157 7.39174 47.8952 9.86663C50.2398 12.3415 51.4121 15.4026 51.4121 19.0498C51.4121 19.7336 51.3307 20.5966 51.1679 21.6387ZM32.6551 16.754H45.1109C44.7527 15.1583 44.02 13.9372 42.9129 13.0905C41.8382 12.2438 40.5519 11.8205 39.054 11.8205C37.3606 11.8205 35.9604 12.2601 34.8532 13.1394C33.746 13.986 33.0133 15.1909 32.6551 16.754Z" fill="white"/>
<path d="M71.1671 20.0267V6.83815H77.4684V31.2614H71.1671V28.526C69.6692 30.8055 67.2431 31.9453 63.889 31.9453C61.2187 31.9453 59.0044 31.0498 57.2459 29.2587C55.52 27.4351 54.657 24.9602 54.657 21.834V6.83815H60.9582V21.0525C60.9582 22.6481 61.3815 23.8856 62.2282 24.7648C63.1075 25.6441 64.2961 26.0837 65.794 26.0837C67.4548 26.0837 68.7574 25.5789 69.7018 24.5694C70.6787 23.5274 71.1671 22.0131 71.1671 20.0267Z" fill="white"/>
<path d="M96.4455 6.83852V12.8955H90.9259V23.0556C90.9259 23.9022 91.1375 24.521 91.5609 24.9117C91.9842 25.3025 92.6029 25.5305 93.417 25.5956C94.2311 25.6282 95.2406 25.6119 96.4455 25.5468V31.2618C92.1796 31.7503 89.1348 31.3595 87.3112 30.0895C85.5202 28.7869 84.6246 26.4423 84.6246 23.0556V12.8955H80.375V6.83852H84.6246V1.90502L90.9259 0V6.83852H96.4455Z" fill="url(#paint0_linear_2828_23562)"/>
<path d="M106.808 6.83852V11.0393C107.361 9.5088 108.306 8.35276 109.641 7.57122C110.976 6.75711 112.507 6.35005 114.233 6.35005V13.384C112.311 13.1234 110.585 13.5142 109.055 14.5563C107.557 15.5658 106.808 17.2428 106.808 19.5875V31.2618H100.507V6.83852H106.808Z" fill="url(#paint1_linear_2828_23562)"/>
<path d="M158.068 6.1543C160.77 6.1543 162.969 7.04982 164.662 8.84086C166.42 10.6645 167.3 13.1394 167.3 16.2655V31.2614H160.998V17.0471C160.998 15.4514 160.559 14.214 159.68 13.3347C158.833 12.4555 157.661 12.0159 156.163 12.0159C154.502 12.0159 153.183 12.5369 152.206 13.579C151.262 14.5885 150.789 16.0864 150.789 18.0729V31.2614H144.488V6.83815H150.789V9.57355C152.287 7.29405 154.713 6.1543 158.068 6.1543Z" fill="url(#paint2_linear_2828_23562)"/>
<mask id="path-4-outside-1_2828_23562" maskUnits="userSpaceOnUse" x="116.027" y="4.50879" width="26" height="28" fill="black">
<rect fill="white" x="116.027" y="4.50879" width="26" height="28"/>
<path fill-rule="evenodd" clip-rule="evenodd" d="M128.691 5.51906C127.306 5.66997 126.091 7.78765 125.319 11.3944C125.238 11.7724 125.234 11.8139 125.274 11.8246C125.299 11.8311 125.421 11.8754 125.545 11.923L125.772 12.0095L125.883 11.4936C126.227 9.89833 126.592 8.77225 127.081 7.79318C127.501 6.95285 127.954 6.41107 128.429 6.17969C128.617 6.08808 128.643 6.08252 128.885 6.08252C129.129 6.08252 129.152 6.08752 129.354 6.18511C129.641 6.32365 130.026 6.7002 130.299 7.10891C130.518 7.43696 130.853 8.09375 131.03 8.54323C131.372 9.40722 131.701 10.5587 131.92 11.6531L131.992 12.0128L132.062 11.9863C132.125 11.962 132.343 11.8815 132.482 11.8308L132.54 11.8099L132.451 11.393C131.934 8.97611 131.223 7.22605 130.376 6.28641C129.853 5.70592 129.298 5.45292 128.691 5.51906ZM119.268 11.1644C117.622 11.307 116.841 12.0812 117.065 13.3476C117.206 14.1423 117.709 15.0292 118.655 16.1505C119.077 16.6505 120.803 18.3282 120.949 18.3804C120.973 18.389 121.384 18.0586 121.382 18.0324C121.381 18.023 121.209 17.8662 120.999 17.6839C120.486 17.2386 119.454 16.213 119.109 15.8069C118.378 14.944 117.941 14.257 117.733 13.6444C117.395 12.6481 117.697 12.0728 118.694 11.8163C118.929 11.7557 119.029 11.7459 119.531 11.7343C119.886 11.7261 120.229 11.7333 120.439 11.7534C123.647 12.0602 128.552 14.1016 132.932 16.9532C133.507 17.3276 134.669 18.1319 134.909 18.3215L135.016 18.406L135.25 18.227L135.483 18.048L135.183 17.8268C134.585 17.3868 134.369 17.232 134.028 16.9998C129.496 13.9173 124.318 11.6591 120.791 11.2274C120.374 11.1765 119.531 11.1416 119.268 11.1644ZM137.567 11.1655C135.528 11.3183 132.716 12.174 129.888 13.502L129.515 13.6771L129.594 13.7234C129.747 13.8131 130.109 13.991 130.139 13.991C130.155 13.991 130.363 13.9034 130.602 13.7963C133.122 12.6647 135.503 11.9386 137.3 11.7542C137.7 11.7132 138.514 11.7197 138.808 11.7663C140.005 11.956 140.404 12.5641 140.039 13.6402C139.827 14.2632 139.4 14.9348 138.661 15.8069C138.327 16.2012 137.294 17.2281 136.792 17.6654C136.455 17.9595 136.294 18.0944 135.724 18.5612C135.375 18.8467 134.388 19.5703 133.723 20.0282C131.493 21.5622 128.752 23.0671 126.407 24.044C126.159 24.1474 126.134 24.1644 126.135 24.2262C126.137 24.3239 126.201 24.6989 126.219 24.7164C126.234 24.7312 126.706 24.5378 127.296 24.2749C129.425 23.3259 131.601 22.126 133.571 20.8141C134.883 19.9406 135.929 19.1533 137.033 18.2078C137.516 17.7941 138.7 16.6317 139.049 16.228C140.334 14.7425 140.901 13.4958 140.706 12.583C140.549 11.8486 139.939 11.3813 138.916 11.2133C138.677 11.174 137.847 11.1446 137.567 11.1655ZM124.958 13.5107C124.958 13.5216 124.934 13.714 124.906 13.9384C124.844 14.4277 124.757 15.3504 124.719 15.9122C124.592 17.8084 124.608 20.3336 124.759 22.1232C125.172 27.0397 126.377 30.6715 127.933 31.6972C128.545 32.1001 129.224 32.1011 129.833 31.6998C131.342 30.7057 132.531 27.2453 132.973 22.5637C133.004 22.2343 133.025 21.9355 133.021 21.8996C133.013 21.8357 133.008 21.8374 132.759 21.9936C132.619 22.0811 132.489 22.1616 132.47 22.1725C132.447 22.1858 132.422 22.3284 132.396 22.5986C132.066 26.034 131.291 28.9142 130.299 30.4001C130.026 30.8088 129.641 31.1854 129.354 31.3239C129.152 31.4215 129.129 31.4265 128.885 31.4265C128.641 31.4265 128.618 31.4215 128.416 31.3239C128.129 31.1854 127.744 30.8088 127.471 30.4001C125.586 27.5765 124.703 20.2999 125.476 13.9696C125.514 13.6566 125.541 13.6964 125.208 13.57C124.987 13.4861 124.958 13.4794 124.958 13.5107ZM123.916 16.8775C122.511 17.861 122.019 18.2302 121.138 18.9632C120.31 19.6518 119.276 20.6439 118.723 21.281C117.062 23.1921 116.605 24.7256 117.426 25.6312C117.749 25.9872 118.249 26.2091 118.961 26.3121C119.34 26.3669 120.233 26.3536 120.774 26.2848C121.623 26.1771 122.811 25.915 123.636 25.6534C124.165 25.4854 124.487 25.3815 124.541 25.3612L124.603 25.3381L124.558 25.0725C124.533 24.9264 124.507 24.8023 124.501 24.7966C124.495 24.7909 124.352 24.8327 124.183 24.8893C123.698 25.0519 123.117 25.2217 122.567 25.3616C121.385 25.6623 120.539 25.787 119.682 25.7873C118.253 25.7877 117.545 25.3343 117.602 24.4536C117.647 23.7417 118.134 22.8539 119.11 21.7009C119.474 21.2698 120.554 20.2069 121.125 19.716C121.896 19.0527 122.833 18.3286 123.76 17.6777C123.987 17.5182 124.075 17.4414 124.084 17.3929C124.098 17.3197 124.111 16.7539 124.098 16.7551C124.093 16.7556 124.012 16.8106 123.916 16.8775ZM136.598 19.2865C136.487 19.3775 136.398 19.4638 136.399 19.4783C136.401 19.4927 136.571 19.6514 136.778 19.8309C137.241 20.2333 138.252 21.2289 138.558 21.5837C139.383 22.5404 139.813 23.2058 140.04 23.8738C140.375 24.8584 140.068 25.4373 139.077 25.6928C138.84 25.7538 138.743 25.7632 138.23 25.7747C137.623 25.7883 137.28 25.7657 136.686 25.6732C135.801 25.5355 134.632 25.2398 133.587 24.8893C133.418 24.8327 133.275 24.7909 133.269 24.7966C133.263 24.8023 133.238 24.9264 133.212 25.0725L133.167 25.3381L133.225 25.3598C133.617 25.5065 134.594 25.7942 135.23 25.9496C136.379 26.2308 137.172 26.3423 138.035 26.3437C138.656 26.3448 138.88 26.3219 139.295 26.2151C140.375 25.9374 140.887 25.1911 140.705 24.1614C140.565 23.3686 140.059 22.4772 139.116 21.3588C138.694 20.8586 136.968 19.1808 136.821 19.1286C136.81 19.1245 136.709 19.1955 136.598 19.2865Z"/>
</mask>
<path fill-rule="evenodd" clip-rule="evenodd" d="M128.691 5.51906C127.306 5.66997 126.091 7.78765 125.319 11.3944C125.238 11.7724 125.234 11.8139 125.274 11.8246C125.299 11.8311 125.421 11.8754 125.545 11.923L125.772 12.0095L125.883 11.4936C126.227 9.89833 126.592 8.77225 127.081 7.79318C127.501 6.95285 127.954 6.41107 128.429 6.17969C128.617 6.08808 128.643 6.08252 128.885 6.08252C129.129 6.08252 129.152 6.08752 129.354 6.18511C129.641 6.32365 130.026 6.7002 130.299 7.10891C130.518 7.43696 130.853 8.09375 131.03 8.54323C131.372 9.40722 131.701 10.5587 131.92 11.6531L131.992 12.0128L132.062 11.9863C132.125 11.962 132.343 11.8815 132.482 11.8308L132.54 11.8099L132.451 11.393C131.934 8.97611 131.223 7.22605 130.376 6.28641C129.853 5.70592 129.298 5.45292 128.691 5.51906ZM119.268 11.1644C117.622 11.307 116.841 12.0812 117.065 13.3476C117.206 14.1423 117.709 15.0292 118.655 16.1505C119.077 16.6505 120.803 18.3282 120.949 18.3804C120.973 18.389 121.384 18.0586 121.382 18.0324C121.381 18.023 121.209 17.8662 120.999 17.6839C120.486 17.2386 119.454 16.213 119.109 15.8069C118.378 14.944 117.941 14.257 117.733 13.6444C117.395 12.6481 117.697 12.0728 118.694 11.8163C118.929 11.7557 119.029 11.7459 119.531 11.7343C119.886 11.7261 120.229 11.7333 120.439 11.7534C123.647 12.0602 128.552 14.1016 132.932 16.9532C133.507 17.3276 134.669 18.1319 134.909 18.3215L135.016 18.406L135.25 18.227L135.483 18.048L135.183 17.8268C134.585 17.3868 134.369 17.232 134.028 16.9998C129.496 13.9173 124.318 11.6591 120.791 11.2274C120.374 11.1765 119.531 11.1416 119.268 11.1644ZM137.567 11.1655C135.528 11.3183 132.716 12.174 129.888 13.502L129.515 13.6771L129.594 13.7234C129.747 13.8131 130.109 13.991 130.139 13.991C130.155 13.991 130.363 13.9034 130.602 13.7963C133.122 12.6647 135.503 11.9386 137.3 11.7542C137.7 11.7132 138.514 11.7197 138.808 11.7663C140.005 11.956 140.404 12.5641 140.039 13.6402C139.827 14.2632 139.4 14.9348 138.661 15.8069C138.327 16.2012 137.294 17.2281 136.792 17.6654C136.455 17.9595 136.294 18.0944 135.724 18.5612C135.375 18.8467 134.388 19.5703 133.723 20.0282C131.493 21.5622 128.752 23.0671 126.407 24.044C126.159 24.1474 126.134 24.1644 126.135 24.2262C126.137 24.3239 126.201 24.6989 126.219 24.7164C126.234 24.7312 126.706 24.5378 127.296 24.2749C129.425 23.3259 131.601 22.126 133.571 20.8141C134.883 19.9406 135.929 19.1533 137.033 18.2078C137.516 17.7941 138.7 16.6317 139.049 16.228C140.334 14.7425 140.901 13.4958 140.706 12.583C140.549 11.8486 139.939 11.3813 138.916 11.2133C138.677 11.174 137.847 11.1446 137.567 11.1655ZM124.958 13.5107C124.958 13.5216 124.934 13.714 124.906 13.9384C124.844 14.4277 124.757 15.3504 124.719 15.9122C124.592 17.8084 124.608 20.3336 124.759 22.1232C125.172 27.0397 126.377 30.6715 127.933 31.6972C128.545 32.1001 129.224 32.1011 129.833 31.6998C131.342 30.7057 132.531 27.2453 132.973 22.5637C133.004 22.2343 133.025 21.9355 133.021 21.8996C133.013 21.8357 133.008 21.8374 132.759 21.9936C132.619 22.0811 132.489 22.1616 132.47 22.1725C132.447 22.1858 132.422 22.3284 132.396 22.5986C132.066 26.034 131.291 28.9142 130.299 30.4001C130.026 30.8088 129.641 31.1854 129.354 31.3239C129.152 31.4215 129.129 31.4265 128.885 31.4265C128.641 31.4265 128.618 31.4215 128.416 31.3239C128.129 31.1854 127.744 30.8088 127.471 30.4001C125.586 27.5765 124.703 20.2999 125.476 13.9696C125.514 13.6566 125.541 13.6964 125.208 13.57C124.987 13.4861 124.958 13.4794 124.958 13.5107ZM123.916 16.8775C122.511 17.861 122.019 18.2302 121.138 18.9632C120.31 19.6518 119.276 20.6439 118.723 21.281C117.062 23.1921 116.605 24.7256 117.426 25.6312C117.749 25.9872 118.249 26.2091 118.961 26.3121C119.34 26.3669 120.233 26.3536 120.774 26.2848C121.623 26.1771 122.811 25.915 123.636 25.6534C124.165 25.4854 124.487 25.3815 124.541 25.3612L124.603 25.3381L124.558 25.0725C124.533 24.9264 124.507 24.8023 124.501 24.7966C124.495 24.7909 124.352 24.8327 124.183 24.8893C123.698 25.0519 123.117 25.2217 122.567 25.3616C121.385 25.6623 120.539 25.787 119.682 25.7873C118.253 25.7877 117.545 25.3343 117.602 24.4536C117.647 23.7417 118.134 22.8539 119.11 21.7009C119.474 21.2698 120.554 20.2069 121.125 19.716C121.896 19.0527 122.833 18.3286 123.76 17.6777C123.987 17.5182 124.075 17.4414 124.084 17.3929C124.098 17.3197 124.111 16.7539 124.098 16.7551C124.093 16.7556 124.012 16.8106 123.916 16.8775ZM136.598 19.2865C136.487 19.3775 136.398 19.4638 136.399 19.4783C136.401 19.4927 136.571 19.6514 136.778 19.8309C137.241 20.2333 138.252 21.2289 138.558 21.5837C139.383 22.5404 139.813 23.2058 140.04 23.8738C140.375 24.8584 140.068 25.4373 139.077 25.6928C138.84 25.7538 138.743 25.7632 138.23 25.7747C137.623 25.7883 137.28 25.7657 136.686 25.6732C135.801 25.5355 134.632 25.2398 133.587 24.8893C133.418 24.8327 133.275 24.7909 133.269 24.7966C133.263 24.8023 133.238 24.9264 133.212 25.0725L133.167 25.3381L133.225 25.3598C133.617 25.5065 134.594 25.7942 135.23 25.9496C136.379 26.2308 137.172 26.3423 138.035 26.3437C138.656 26.3448 138.88 26.3219 139.295 26.2151C140.375 25.9374 140.887 25.1911 140.705 24.1614C140.565 23.3686 140.059 22.4772 139.116 21.3588C138.694 20.8586 136.968 19.1808 136.821 19.1286C136.81 19.1245 136.709 19.1955 136.598 19.2865Z" fill="url(#paint3_linear_2828_23562)"/>
<path fill-rule="evenodd" clip-rule="evenodd" d="M128.691 5.51906C127.306 5.66997 126.091 7.78765 125.319 11.3944C125.238 11.7724 125.234 11.8139 125.274 11.8246C125.299 11.8311 125.421 11.8754 125.545 11.923L125.772 12.0095L125.883 11.4936C126.227 9.89833 126.592 8.77225 127.081 7.79318C127.501 6.95285 127.954 6.41107 128.429 6.17969C128.617 6.08808 128.643 6.08252 128.885 6.08252C129.129 6.08252 129.152 6.08752 129.354 6.18511C129.641 6.32365 130.026 6.7002 130.299 7.10891C130.518 7.43696 130.853 8.09375 131.03 8.54323C131.372 9.40722 131.701 10.5587 131.92 11.6531L131.992 12.0128L132.062 11.9863C132.125 11.962 132.343 11.8815 132.482 11.8308L132.54 11.8099L132.451 11.393C131.934 8.97611 131.223 7.22605 130.376 6.28641C129.853 5.70592 129.298 5.45292 128.691 5.51906ZM119.268 11.1644C117.622 11.307 116.841 12.0812 117.065 13.3476C117.206 14.1423 117.709 15.0292 118.655 16.1505C119.077 16.6505 120.803 18.3282 120.949 18.3804C120.973 18.389 121.384 18.0586 121.382 18.0324C121.381 18.023 121.209 17.8662 120.999 17.6839C120.486 17.2386 119.454 16.213 119.109 15.8069C118.378 14.944 117.941 14.257 117.733 13.6444C117.395 12.6481 117.697 12.0728 118.694 11.8163C118.929 11.7557 119.029 11.7459 119.531 11.7343C119.886 11.7261 120.229 11.7333 120.439 11.7534C123.647 12.0602 128.552 14.1016 132.932 16.9532C133.507 17.3276 134.669 18.1319 134.909 18.3215L135.016 18.406L135.25 18.227L135.483 18.048L135.183 17.8268C134.585 17.3868 134.369 17.232 134.028 16.9998C129.496 13.9173 124.318 11.6591 120.791 11.2274C120.374 11.1765 119.531 11.1416 119.268 11.1644ZM137.567 11.1655C135.528 11.3183 132.716 12.174 129.888 13.502L129.515 13.6771L129.594 13.7234C129.747 13.8131 130.109 13.991 130.139 13.991C130.155 13.991 130.363 13.9034 130.602 13.7963C133.122 12.6647 135.503 11.9386 137.3 11.7542C137.7 11.7132 138.514 11.7197 138.808 11.7663C140.005 11.956 140.404 12.5641 140.039 13.6402C139.827 14.2632 139.4 14.9348 138.661 15.8069C138.327 16.2012 137.294 17.2281 136.792 17.6654C136.455 17.9595 136.294 18.0944 135.724 18.5612C135.375 18.8467 134.388 19.5703 133.723 20.0282C131.493 21.5622 128.752 23.0671 126.407 24.044C126.159 24.1474 126.134 24.1644 126.135 24.2262C126.137 24.3239 126.201 24.6989 126.219 24.7164C126.234 24.7312 126.706 24.5378 127.296 24.2749C129.425 23.3259 131.601 22.126 133.571 20.8141C134.883 19.9406 135.929 19.1533 137.033 18.2078C137.516 17.7941 138.7 16.6317 139.049 16.228C140.334 14.7425 140.901 13.4958 140.706 12.583C140.549 11.8486 139.939 11.3813 138.916 11.2133C138.677 11.174 137.847 11.1446 137.567 11.1655ZM124.958 13.5107C124.958 13.5216 124.934 13.714 124.906 13.9384C124.844 14.4277 124.757 15.3504 124.719 15.9122C124.592 17.8084 124.608 20.3336 124.759 22.1232C125.172 27.0397 126.377 30.6715 127.933 31.6972C128.545 32.1001 129.224 32.1011 129.833 31.6998C131.342 30.7057 132.531 27.2453 132.973 22.5637C133.004 22.2343 133.025 21.9355 133.021 21.8996C133.013 21.8357 133.008 21.8374 132.759 21.9936C132.619 22.0811 132.489 22.1616 132.47 22.1725C132.447 22.1858 132.422 22.3284 132.396 22.5986C132.066 26.034 131.291 28.9142 130.299 30.4001C130.026 30.8088 129.641 31.1854 129.354 31.3239C129.152 31.4215 129.129 31.4265 128.885 31.4265C128.641 31.4265 128.618 31.4215 128.416 31.3239C128.129 31.1854 127.744 30.8088 127.471 30.4001C125.586 27.5765 124.703 20.2999 125.476 13.9696C125.514 13.6566 125.541 13.6964 125.208 13.57C124.987 13.4861 124.958 13.4794 124.958 13.5107ZM123.916 16.8775C122.511 17.861 122.019 18.2302 121.138 18.9632C120.31 19.6518 119.276 20.6439 118.723 21.281C117.062 23.1921 116.605 24.7256 117.426 25.6312C117.749 25.9872 118.249 26.2091 118.961 26.3121C119.34 26.3669 120.233 26.3536 120.774 26.2848C121.623 26.1771 122.811 25.915 123.636 25.6534C124.165 25.4854 124.487 25.3815 124.541 25.3612L124.603 25.3381L124.558 25.0725C124.533 24.9264 124.507 24.8023 124.501 24.7966C124.495 24.7909 124.352 24.8327 124.183 24.8893C123.698 25.0519 123.117 25.2217 122.567 25.3616C121.385 25.6623 120.539 25.787 119.682 25.7873C118.253 25.7877 117.545 25.3343 117.602 24.4536C117.647 23.7417 118.134 22.8539 119.11 21.7009C119.474 21.2698 120.554 20.2069 121.125 19.716C121.896 19.0527 122.833 18.3286 123.76 17.6777C123.987 17.5182 124.075 17.4414 124.084 17.3929C124.098 17.3197 124.111 16.7539 124.098 16.7551C124.093 16.7556 124.012 16.8106 123.916 16.8775ZM136.598 19.2865C136.487 19.3775 136.398 19.4638 136.399 19.4783C136.401 19.4927 136.571 19.6514 136.778 19.8309C137.241 20.2333 138.252 21.2289 138.558 21.5837C139.383 22.5404 139.813 23.2058 140.04 23.8738C140.375 24.8584 140.068 25.4373 139.077 25.6928C138.84 25.7538 138.743 25.7632 138.23 25.7747C137.623 25.7883 137.28 25.7657 136.686 25.6732C135.801 25.5355 134.632 25.2398 133.587 24.8893C133.418 24.8327 133.275 24.7909 133.269 24.7966C133.263 24.8023 133.238 24.9264 133.212 25.0725L133.167 25.3381L133.225 25.3598C133.617 25.5065 134.594 25.7942 135.23 25.9496C136.379 26.2308 137.172 26.3423 138.035 26.3437C138.656 26.3448 138.88 26.3219 139.295 26.2151C140.375 25.9374 140.887 25.1911 140.705 24.1614C140.565 23.3686 140.059 22.4772 139.116 21.3588C138.694 20.8586 136.968 19.1808 136.821 19.1286C136.81 19.1245 136.709 19.1955 136.598 19.2865Z" stroke="url(#paint4_linear_2828_23562)" mask="url(#path-4-outside-1_2828_23562)"/>
<defs>
<linearGradient id="paint0_linear_2828_23562" x1="107.582" y1="-7.72586" x2="85.7402" y2="34.9266" gradientUnits="userSpaceOnUse">
<stop stop-color="#8364E8"/>
<stop offset="1" stop-color="#D397FA"/>
</linearGradient>
<linearGradient id="paint1_linear_2828_23562" x1="107.582" y1="-7.72586" x2="85.7402" y2="34.9266" gradientUnits="userSpaceOnUse">
<stop stop-color="#8364E8"/>
<stop offset="1" stop-color="#D397FA"/>
</linearGradient>
<linearGradient id="paint2_linear_2828_23562" x1="162.819" y1="-0.0104003" x2="143.771" y2="31.3962" gradientUnits="userSpaceOnUse">
<stop stop-color="#8364E8"/>
<stop offset="1" stop-color="#D397FA"/>
</linearGradient>
<linearGradient id="paint3_linear_2828_23562" x1="136.085" y1="-0.995769" x2="115.851" y2="31.8773" gradientUnits="userSpaceOnUse">
<stop stop-color="#8364E8"/>
<stop offset="1" stop-color="#D397FA"/>
</linearGradient>
<linearGradient id="paint4_linear_2828_23562" x1="136.085" y1="-0.995769" x2="115.851" y2="31.8773" gradientUnits="userSpaceOnUse">
<stop stop-color="#8364E8"/>
<stop offset="1" stop-color="#D397FA"/>
</linearGradient>
</defs>
</svg>
